<svg width="45" height="28" viewBox="0 0 45 28" fill="none" xmlns="http://www.w3.org/2000/svg">
<path d="M41.5117 9.56069L35.6608 3.70973C35.6572 3.70612 35.6533 3.70278 35.6496 3.69917C35.646 3.69555 35.6417 3.69068 35.6375 3.68651C33.9301 1.97928 31.6792 0.923116 29.2749 0.70103C26.8706 0.478945 24.4644 1.10493 22.4731 2.47052C20.4818 1.10493 18.0756 0.478945 15.6713 0.70103C13.267 0.923116 11.0161 1.97928 9.30867 3.68651L3.45772 9.53733C1.63478 11.3607 0.55858 13.7993 0.440077 16.3748C0.321574 18.9505 1.16931 21.4776 2.81711 23.4607C4.46493 25.4437 6.79398 26.7399 9.34776 27.0951C11.9015 27.4502 14.4959 26.8388 16.6223 25.3806C18.344 26.5612 20.3826 27.1934 22.4702 27.1941C24.5579 27.1946 26.5968 26.5636 28.3192 25.3839C30.4431 26.8512 33.0388 27.4711 35.5965 27.122C38.1542 26.7729 40.4889 25.4801 42.142 23.4974C43.7951 21.5147 44.6469 18.9855 44.5304 16.4068C44.4137 13.828 43.337 11.3861 41.5117 9.56069ZM13.4451 22.4506C12.1243 23.0815 10.623 23.225 9.2065 22.856C7.79003 22.4871 6.54961 21.6291 5.70446 20.434C4.85933 19.2389 4.46387 17.7836 4.588 16.3251C4.71212 14.8666 5.34783 13.4989 6.38278 12.4638L12.2336 6.61282C13.1417 5.70588 14.3084 5.10229 15.5733 4.88497C16.8382 4.66765 18.1395 4.84723 19.2982 5.39906L15.1595 9.53733C13.5723 11.1162 12.5449 13.1707 12.2336 15.3877C12.1651 15.8725 12.1305 16.3614 12.1301 16.851C12.126 18.7864 12.6688 20.6836 13.6958 22.3241C13.613 22.3683 13.5294 22.4103 13.4451 22.4502V22.4506ZM26.8613 21.2395C25.6962 22.397 24.1197 23.0452 22.4774 23.0426C20.8351 23.0398 19.2609 22.3861 18.0996 21.2249C16.9384 20.0636 16.2847 18.4894 16.2819 16.8471C16.2793 15.2047 16.9275 13.6284 18.085 12.4632L22.4731 8.07508L26.8613 12.4632C28.023 13.6279 28.6754 15.2058 28.6754 16.851C28.6754 18.4959 28.023 20.0739 26.8613 21.2385V21.2395ZM38.5862 21.2627C37.6738 22.1728 36.501 22.7767 35.2303 22.991C33.9595 23.2053 32.6535 23.0192 31.4932 22.4586C31.4097 22.4184 31.3271 22.3763 31.2455 22.3322C32.2757 20.6898 32.8203 18.7896 32.8161 16.851C32.8157 16.3614 32.7812 15.8725 32.7126 15.3877C32.4014 13.1707 31.3739 11.1162 29.7867 9.53733L25.6733 5.42408L25.6501 5.40086C26.8083 4.84929 28.1088 4.66958 29.3732 4.88639C30.6376 5.10321 31.8038 5.70593 32.7121 6.61185C32.7162 6.61602 32.7201 6.62047 32.7242 6.62464C32.7282 6.62882 32.7317 6.6316 32.7353 6.63521L38.5589 12.4588L38.5867 12.4866C39.7504 13.6504 40.4042 15.2289 40.4042 16.8747C40.4042 18.5205 39.7504 20.099 38.5867 21.2629L38.5862 21.2627Z" fill="url(#paint0_linear)"/>
<defs>
<linearGradient id="paint0_linear" x1="12.5158" y1="26.9249" x2="22.602" y2="-1.12232" gradientUnits="userSpaceOnUse">
<stop stop-color="#666FCF"/>
<stop offset="1" stop-color="#FF2539"/>
</linearGradient>
</defs>
</svg>
